<svg xmlns="http://www.w3.org/2000/svg" width="64" height="64" viewBox="0 0 64 64" role="img" aria-label="Omni Frontend Icon (Wutong)">
  <defs>
    <radialGradient id="bgRad" cx="32" cy="22" r="44" gradientUnits="userSpaceOnUse">
      <stop offset="0" stop-color="#0b1630"/>
      <stop offset="0.55" stop-color="#071126"/>
      <stop offset="1" stop-color="#040812"/>
    </radialGradient>

    <linearGradient id="ring" x1="10" y1="8" x2="56" y2="56" gradientUnits="userSpaceOnUse">
      <stop offset="0" stop-color="#22d3ee"/>
      <stop offset="0.5" stop-color="#60a5fa"/>
      <stop offset="1" stop-color="#a78bfa"/>
    </linearGradient>

    <linearGradient id="grid" x1="12" y1="12" x2="52" y2="52" gradientUnits="userSpaceOnUse">
      <stop offset="0" stop-color="#60a5fa" stop-opacity="0.55"/>
      <stop offset="1" stop-color="#1d4ed8" stop-opacity="0.2"/>
    </linearGradient>

    <linearGradient id="treeGrad" x1="24" y1="18" x2="42" y2="46" gradientUnits="userSpaceOnUse">
      <stop offset="0" stop-color="#34d399"/>
      <stop offset="0.55" stop-color="#22c55e"/>
      <stop offset="1" stop-color="#16a34a"/>
    </linearGradient>

    <filter id="glow" x="-30%" y="-30%" width="160%" height="160%">
      <feGaussianBlur stdDeviation="2.2" result="blur"/>
      <feColorMatrix in="blur" type="matrix"
        values="1 0 0 0 0
                0 1 0 0 0
                0 0 1 0 0
                0 0 0 0.65 0" result="glow"/>
      <feMerge>
        <feMergeNode in="glow"/>
        <feMergeNode in="SourceGraphic"/>
      </feMerge>
    </filter>

    <filter id="softShadow" x="-30%" y="-30%" width="160%" height="160%">
      <feDropShadow dx="0" dy="1.2" stdDeviation="1.6" flood-color="#000000" flood-opacity="0.45"/>
    </filter>
  </defs>

  <!-- Base -->
  <circle cx="32" cy="32" r="30" fill="url(#bgRad)" stroke="url(#ring)" stroke-width="2.2" filter="url(#glow)"/>
  <circle cx="32" cy="32" r="23" fill="none" stroke="url(#grid)" stroke-width="1.6" opacity="0.9"/>

  <!-- Globe grid -->
  <path d="M32 9.8C23.6 13.7 23.6 50.3 32 54.2C40.4 50.3 40.4 13.7 32 9.8Z" fill="none" stroke="url(#grid)" stroke-width="1.6" opacity="0.7"/>
  <path d="M9.8 32C13.7 23.6 50.3 23.6 54.2 32C50.3 40.4 13.7 40.4 9.8 32Z" fill="none" stroke="url(#grid)" stroke-width="1.6" opacity="0.7"/>
  <path d="M14 24C22 28 42 28 50 24" fill="none" stroke="#2563eb" stroke-width="1.6" opacity="0.55" stroke-linecap="round"/>
  <path d="M14 40C22 36 42 36 50 40" fill="none" stroke="#2563eb" stroke-width="1.6" opacity="0.55" stroke-linecap="round"/>

  <!-- Neon highlight arc -->
  <path d="M18 14C27 10 37 10 46 14" fill="none" stroke="#22d3ee" stroke-width="2.2" opacity="0.45" stroke-linecap="round" filter="url(#glow)"/>

  <!-- Orbit nodes -->
  <g filter="url(#glow)">
    <circle cx="50" cy="18" r="2.3" fill="#22c55e"/>
    <circle cx="54" cy="34" r="2.3" fill="#f59e0b"/>
    <circle cx="18" cy="14" r="2.3" fill="#a78bfa"/>
    <circle cx="14" cy="46" r="2.3" fill="#38bdf8"/>
  </g>

  <!-- Wutong tree mark (replaces code mark) -->
  <g filter="url(#softShadow)">
    <!-- canopy (stylized wutong leaf crown) -->
    <path d="M32 17
             C30.2 19.9 27.4 20.4 25.2 19.1
             C25.2 22.2 23.4 24.1 21.2 25.1
             C23.2 27.0 23.2 30.2 21.2 32.1
             C24.2 32.2 26.2 34.1 27.4 36.9
             C29.6 35.3 31.0 34.2 32 33.0
             C33.0 34.2 34.4 35.3 36.6 36.9
             C37.8 34.1 39.8 32.2 42.8 32.1
             C40.8 30.2 40.8 27.0 42.8 25.1
             C40.6 24.1 38.8 22.2 38.8 19.1
             C36.6 20.4 33.8 19.9 32 17Z"
          fill="url(#treeGrad)" stroke="#eafff6" stroke-opacity="0.55" stroke-width="1" filter="url(#glow)"/>

    <!-- trunk -->
    <path d="M32 33.1
             C31.6 35.8 30.8 38.0 29.6 40.3
             C28.8 41.9 28.1 43.5 28 46
             L36 46
             C35.9 43.5 35.2 41.9 34.4 40.3
             C33.2 38.0 32.4 35.8 32 33.1Z"
          fill="#14532d" opacity="0.95"/>

    <!-- subtle veins -->
    <path d="M32 20.5L32 32.5" fill="none" stroke="#eafff6" stroke-opacity="0.35" stroke-width="1.1" stroke-linecap="round"/>
    <path d="M27.2 24.6L32 29.2L36.8 24.6" fill="none" stroke="#eafff6" stroke-opacity="0.22" stroke-width="1" stroke-linecap="round" stroke-linejoin="round"/>
  </g>
</svg>

